<?xml version="1.0" encoding="utf-8"?>
<!-- Generator: Adobe Illustrator 26.5.0, SVG Export Plug-In . SVG Version: 6.00 Build 0)  -->
<svg version="1.1" xmlns="http://www.w3.org/2000/svg" xmlns:xlink="http://www.w3.org/1999/xlink" x="0px" y="0px"
	 viewBox="0 0 1660 332" style="enable-background:new 0 0 1660 332;" xml:space="preserve">
<style type="text/css">
	.st0{fill:#222222;}
	.st1{fill:#999999;}
	.st2{fill:#009639;}
	.st3{fill:#FFFFFF;}
	.st4{fill:none;stroke:#62C026;stroke-width:6.3479633;stroke-linejoin:round;stroke-miterlimit:10;}
	.st5{fill:#267423;}
	.st6{fill:#62C026;}
	.st7{fill:#E6E6E6;}
</style>
<g id="Layer_1">
	<rect class="st0" width="1660" height="332"/>
</g>
<g id="Art">
	<g>
		<g>
			<path class="st1" d="M311.9880066,232.1229248h-9.3733826l-1.7800903,5.5219574h-4.396637l7.7028503-25.7251434h6.3584595
				l7.6655273,25.7251434h-4.4327698L311.9880066,232.1229248z M303.8868103,227.9802094h6.8302307L307.3013,216.607666
				L303.8868103,227.9802094z"/>
			<path class="st1" d="M336.5467834,226.9271088v10.7177734h-4.3232117v-10.7551117
				c0-2.8331909-1.4900513-4.1775665-3.6696777-4.1775665c-1.9979248,0-3.7431335,1.1974945-3.8514404,3.6323395v11.3003387
				h-4.2871094v-18.4579773h2.7970581l0.7991943,1.5983276c1.3817139-1.4165802,3.3796387-2.1062012,5.5592957-2.1062012
				C333.8218994,218.6790314,336.5467834,221.1138611,336.5467834,226.9271088z"/>
			<path class="st1" d="M364.9918518,211.9197388v25.7251434h-4.2149353l-10.1003418-17.4048615v17.4048615h-4.1775818v-25.7251434
				h4.1775818l10.1003418,17.5144043v-17.5144043H364.9918518z"/>
			<path class="st1" d="M384.2813416,221.0765228v-1.1999969c0-2.6887665-2.0339966-4.3219604-5.5953979-4.3219604
				c-3.5962219,0-5.6315002,1.633194-5.6315002,4.3219604v9.811554c0,2.6887817,2.0352783,4.3219757,5.5953979,4.3219757
				c3.5975037,0,5.6315002-1.633194,5.6315002-4.3219757v-1.6356659h-5.7771301v-4.1427155h10.2460022v6.0323334
				c0,4.9767303-3.6696777,8.2107239-10.06427,8.2107239c-6.3945618,0-10.1003418-3.2339935-10.1003418-8.2107239v-10.3194427
				c0-4.9767303,3.6696777-8.2107391,10.0642395-8.2107391c6.4306946,0,10.1003723,3.2340088,10.1003723,8.2107391v1.4539337
				H384.2813416z"/>
			<path class="st1" d="M392.8530884,211.9197388h4.4688416v25.7251434h-4.4688416V211.9197388z"/>
			<path class="st1" d="M420.0657959,211.9197388v25.7251434h-4.2149048l-10.1016235-17.4048615v17.4048615h-4.1775513v-25.7251434
				h4.1775513l10.1016235,17.5144043v-17.5144043H420.0657959z"/>
			<path class="st1" d="M436.3403931,224.8906097l7.8111572,12.7542725h-5.1958313l-5.3763123-8.8306427l-5.4870911,8.8306427
				h-4.9406433l7.8111572-13.0804138l-7.7389526-12.6447296h5.1958008l5.3775635,8.7559509l5.5219727-8.7559509h5.0140686
				L436.3403931,224.8906097z"/>
			<path class="st1" d="M471.3978577,219.1147156v2.5792389c0,4.396637-3.1244507,7.1949615-8.1746521,7.1949615h-5.9949646
				v8.7559662h-4.4688721v-25.7251434h10.4265137C468.2360535,211.9197388,471.3978577,214.7180634,471.3978577,219.1147156z
				 M466.9290161,219.0051727c0-1.8896179-1.198761-2.9427185-3.4157715-2.9427185h-6.2850037v8.6837616h6.2489319
				c2.2157288,0,3.4518433-1.0531158,3.4518433-2.9427185V219.0051727z"/>
			<path class="st1" d="M484.3649902,218.8956299v3.8165741c-0.5439758-0.1468964-1.1265259-0.253952-1.706604-0.253952
				c-2.2170105,0-4.178833,1.2696991-4.178833,4.0680237v11.1186066h-4.2871094v-18.4579773h2.9066162l0.8352661,1.6705322
				c1.453949-1.3443909,3.4879456-2.0340118,5.5232239-2.0340118
				C483.7836914,218.8234253,484.0749512,218.8607635,484.3649902,218.8956299z"/>
			<path class="st1" d="M485.9994202,230.3055115v-3.7792358c0-4.8323212,2.9066467-7.8472443,8.1385498-7.8472443
				c5.2680359,0,8.1746521,3.0149231,8.1746521,7.8472443v3.7792358c0,4.8323364-2.9066162,7.8472443-8.1385498,7.8472443
				C488.9421692,238.1527557,485.9994202,235.1378479,485.9994202,230.3055115z M497.9894104,230.1586151v-3.4879303
				c0-2.6141052-1.1626587-3.9958344-3.8153381-3.9958344c-2.6514282,0-3.8501892,1.3817291-3.8501892,3.9958344v3.4879303
				c0,2.6165924,1.198761,3.9983215,3.8140869,3.9983215C496.7906494,234.1569366,497.9894104,232.7752075,497.9894104,230.1586151z
				"/>
			<path class="st1" d="M501.3653259,242.0041809h0.7991638c2.7983093,0,3.2340088-1.5634766,3.2340088-3.9236145v-18.8936615
				h4.3232117v20.0563049c0,5.0140686-2.9788208,6.7568054-6.3572388,6.7568054h-1.9991455V242.0041809z M505.3623962,212.2110291
				h4.3954163v4.6157227h-4.3954163V212.2110291z"/>
			<path class="st1" d="M529.0498047,225.6549225v4.0680237h-11.6264648v0.5452118
				c0,2.9427185,1.3804932,4.2871094,3.8501587,4.2871094c1.8535156,0,3.4157715-0.9435577,3.4157715-2.5070343v-0.2887878
				h4.3231812c0,3.9958191-3.0883789,6.3933105-7.7389526,6.3933105c-5.2680054,0-8.1746216-3.1966553-8.1746216-8.0289917
				v-3.5252838c0-4.8323364,2.9066162-7.9194489,8.0663452-7.9194489
				C525.8880005,218.6790314,529.0498047,221.6217499,529.0498047,225.6549225z M524.6531372,226.4167328v-0.7269592
				c0-2.2879486-1.1265259-3.4132538-3.4157104-3.4132538c-2.5792847,0-3.7780151,1.4514313-3.8140869,4.140213H524.6531372z"/>
			<path class="st1" d="M531.9539185,230.3055115v-3.7792358c0-4.8323212,2.9066162-7.8472443,8.0314941-7.8472443
				c4.7949829,0,7.84729,2.9427185,7.84729,7.5211029v0.4356842h-4.359314v-0.5452271
				c0-2.215744-1.3082886-3.415741-3.4879761-3.415741c-2.5082397,0-3.7070312,1.3817291-3.7070312,3.9958344v3.4879303
				c0,2.6165924,1.1987915,3.9983215,3.7070312,3.9983215c2.1435547,0,3.4879761-1.234848,3.4879761-3.415741v-0.5452271h4.359314
				v0.4356842c0,4.5783844-3.0523071,7.5211029-7.84729,7.5211029
				C534.8966675,238.1527557,531.9539185,235.1378479,531.9539185,230.3055115z"/>
			<path class="st1" d="M562.0359497,233.6465607v3.9983215h-2.6153564c-4.3605957,0-6.5762939-2.2530975-6.5762939-6.94104
				v-7.5211029h-2.4709473v-3.9958344h2.4709473v-5.2680054h4.3231812v5.2680054h4.614502v3.9958344h-4.614502v6.687088
				c0,2.61409,1.0531006,3.7767334,3.1605835,3.7767334H562.0359497z"/>
		</g>
		<g>
			<g>
				<g>
					<g>
						<g>
							<path class="st2" d="M121.0398254,200.2646637c0.716362,1.2425537,1.7262878,2.211853,2.8912964,2.8691254
								l59.147934,34.1488647l0.0018463-0.0018463c1.1539459,0.6794434,2.4962006,1.0690002,3.9307709,1.0690002
								s2.7786713-0.3895569,3.9307556-1.0690002l59.1497955-34.1488495
								c1.1650085-0.6572876,2.1712341-1.6247406,2.8894348-2.8672943c0.7182159-1.2425385,1.0523987-2.5995636,1.0394745-3.9381104
								v-68.2977295l-0.0018463-0.0018463c0.0110779-1.3367157-0.3231049-2.6955795-1.0394745-3.9381256
								c-0.7182007-1.2425537-1.7281189-2.2100067-2.8912811-2.869133L190.938736,87.0708618v-0.0018463
								c-1.1520844-0.6794434-2.494339-1.0690079-3.9289093-1.0690079c-1.432724,0-2.7749786,0.3895645-3.9270782,1.0690079
								v0.0018463l-59.147934,34.1488571c-1.1650085,0.6591263-2.1749344,1.6265793-2.8931427,2.869133
								c-0.716362,1.2425461-1.0505447,2.6014099-1.0394669,3.9381256l-0.0018463,0.0018463v68.2977295
								c-0.0129242,1.3385468,0.3212585,2.6955719,1.0376205,3.9381104"/>
						</g>
					</g>
				</g>
				<path class="st3" d="M168.0723724,188.1761322c0,4.2002869-3.4047394,7.6066895-7.6071014,7.6066895
					c-4.200531,0-7.6071014-3.4064026-7.6071014-7.6066895l0.0018463,0.0018463l0.0073853-52.2166138
					c0-4.0451965,3.5746002-7.3906708,8.6373901-7.3906708c3.6244507,0,7.8083496,1.462265,10.3692932,4.6360168
					l2.2987518,2.7509766l31.7799683,38.0297394v-37.813736h-0.0036774c0-4.2002869,3.4065704-7.6066895,7.6089478-7.6066895
					c4.200531,0,7.6052551,3.4064026,7.6052551,7.6066895h-0.0018463l-0.0073853,52.2129059
					c0,4.0452118-3.5764465,7.390686-8.6373901,7.390686c-3.626297,0-7.8083649-1.4604187-10.3692932-4.6360321
					l-34.0787354-40.7807159v37.8174438L168.0723724,188.1761322z"/>
			</g>
			<g>
				<path class="st1" d="M427.3791809,185.5565643h0.9719543v-2.1648254h0.7688599
					c0.5082397,0,0.8728333,0.0495453,1.0799255,0.1803284c0.3398132,0.1991425,0.5132141,0.6261597,0.5132141,1.2592621v0.4438629
					l0.0217896,0.165451c0.0119019,0.0366669,0.0119019,0.0515289,0.0148621,0.0693665
					c0.0049438,0.0267487,0.0069275,0.034668,0.0217896,0.0465546h0.9006042l-0.0326843-0.0614319
					c-0.0267639-0.0416107-0.041626-0.1357269-0.0435791-0.2813721c-0.0128784-0.1555481-0.0128784-0.2883148-0.0128784-0.4111633
					v-0.4101868c0-0.2754211-0.1030579-0.5568085-0.3012085-0.8580017c-0.2041016-0.2902985-0.525116-0.462677-0.9590759-0.5389709
					c0.3428345-0.0574646,0.6123047-0.1486206,0.7995605-0.2595825c0.3675842-0.231842,0.5369873-0.6083374,0.5369873-1.0898438
					c0-0.6925507-0.2734375-1.1661224-0.8500671-1.3979645c-0.3180237-0.1307831-0.8164062-0.1971741-1.506958-0.1971741h-1.9230957
					V185.5565643z M430.1434326,182.5882263c-0.1951599,0.0842133-0.5053101,0.1228638-0.924408,0.1228638h-0.8678894v-2.0043182
					h0.8283081c0.5369873,0,0.9263611,0.0762787,1.1680908,0.2149963c0.2466736,0.1377106,0.3656006,0.4042358,0.3656006,0.8035126
					C430.7131348,182.1513062,430.5278625,182.4306946,430.1434326,182.5882263 M432.9661255,179.279068
					c-0.9887695-0.9759064-2.1717529-1.4593964-3.5697327-1.4593964c-1.3682556,0-2.5621033,0.48349-3.5281067,1.4593964
					c-0.9887695,0.9788818-1.4673157,2.1628418-1.4673157,3.552887c0,1.3880615,0.4735718,2.5769806,1.4494629,3.5509033
					c0.9689636,0.9887848,2.1648254,1.4792175,3.5459595,1.4792175c1.3979797,0,2.5809631-0.4904327,3.5697327-1.4792175
					c0.9689636-0.9788666,1.4692993-2.1727448,1.4692993-3.5509033
					C434.4354248,181.4320068,433.9350891,180.2579498,432.9661255,179.279068 M432.4559021,179.77742
					c0.8460999,0.8263092,1.2602234,1.8567047,1.2602234,3.0545349c0,1.1859589-0.4141235,2.2242737-1.2602234,3.069397
					c-0.833252,0.841156-1.85672,1.2731323-3.0595093,1.2731323c-1.1938782,0-2.2113647-0.4319763-3.055542-1.2731323
					c-0.8282776-0.8451233-1.254303-1.8834381-1.254303-3.069397c0-1.1978302,0.4260254-2.2282257,1.254303-3.0545349
					c0.8560486-0.8599701,1.8695984-1.2820435,3.055542-1.2820435
					C430.5942078,178.4953766,431.6127319,178.91745,432.4559021,179.77742"/>
				<g>
					<path class="st3" d="M296.4403381,172.4392395v-36.1351318h8.9604187v35.6251984
						c0,5.3908844,3.5699158,8.6692505,10.7825317,8.6692505s10.7825317-3.2783661,10.7825317-8.6692505v-35.6251984h8.9604492
						v36.1351318c0,10.0534668-7.2126465,16.4645996-19.6701965,16.4645996
						C303.7257385,188.9038391,296.4403381,182.4927063,296.4403381,172.4392395z"/>
					<path class="st3" d="M375.7033691,166.3924561v21.4915314l-8.6700134-0.0000153v-21.5643158
						c0-5.6824341-2.9868164-8.378067-7.3582153-8.378067c-4.0066528,0-7.5037842,2.404068-7.722168,7.2850342v22.6573486
						h-8.5964661v-37.0090485h5.6096497l1.6029663,3.2052002c2.7684326-2.8412323,6.775116-4.2254333,11.1465149-4.2254333
						C370.2393188,149.8546906,375.7033691,154.7360229,375.7033691,166.3924561z"/>
					<path class="st3" d="M383.7144775,136.887207h8.8876343v9.2519836h-8.8876343V136.887207z M383.8600464,150.8749237h8.669281
						v37.0090485h-8.669281V150.8749237z"/>
					<path class="st3" d="M420.5768127,179.8702393v8.0137329h-5.2456665c-8.7420654,0-13.1862488-4.516983-13.1862488-13.9149323
						v-15.0803833h-4.9537659v-8.0137329h4.9537659v-10.5637665h8.6692505v10.5637665h9.2523499v8.0137329h-9.2523499v13.4049988
						c0,5.2453003,2.1132812,7.5765839,6.3383484,7.5765839H420.5768127z"/>
				</g>
			</g>
		</g>
	</g>
</g>
<g id="artwork">
	<g>
		<g>
			<ellipse class="st3" cx="1438.1523438" cy="40.3328018" rx="4.3671799" ry="4.6571636"/>
		</g>
		<g>
			<path class="st4" d="M1449.3671875,185.17453c0,0,42.8554688,17.7458191,55.9665527-38.7562561"/>
			<g>
				<path class="st2" d="M1515.2062988,150.6308441c-0.2004395,0.6022034-0.7965088,1.0005188-1.4407959,0.8917542
					l-18.2456055-3.0800781c-0.6442871-0.1087646-1.0772705-0.6807861-1.0688477-1.3153992l-0.0385742-0.0065002
					c0,0,0.0134277-0.078949,0.0321045-0.1901245c0.0522461-0.3088837-0.0175781,0.1047668,0.1364746-0.8079987
					c0.4699707-2.7843781,1.265625-7.4972229,1.4852295-8.7984619c0.8564453-5.0735321,4.4857178-8.9770355,9.0693359-10.4446106
					l-1.2091064,7.1621399c-1.1503906,1.0960236-1.9852295,2.5393066-2.2700195,4.2261658
					c-0.041748,0.2472992-0.8549805,5.2803802-0.8549805,5.2803802l9.5836182,1.6178284
					c0,0,0.8430176-4.7857513,0.9511719-5.4262543c0.25-1.4815674,0.0388184-2.928299-0.5042725-4.2173157l1.258667-7.4558563
					c3.6591797,2.9155731,5.6691895,7.6758728,4.8352051,12.6167603c-0.2275391,1.3476562-1.0369873,6.1426239-1.5119629,8.9560699
					c-0.1540527,0.9130707-0.0842285,0.4994202-0.1363525,0.8079834c-0.0187988,0.111496-0.0321045,0.1901398-0.0321045,0.1901398
					L1515.2062988,150.6308441z"/>
			</g>
		</g>
		<g>
			<path class="st4" d="M1454.5784912,196.9434509c0,0,3.9665527,46.2144318,60.1638184,31.8529053"/>
			<g>
				<path class="st2" d="M1515.5456543,239.5000458c-0.6268311,0.0991974-1.2548828-0.2467041-1.4547119-0.8687744
					l-5.6619873-17.616272c-0.1999512-0.6220703,0.1086426-1.2696533,0.6759033-1.5542603l-0.0119629-0.0372009
					c0,0,0.0762939-0.0245056,0.1835938-0.0590057c0.2982178-0.0958405-0.1010742,0.0325165,0.7801514-0.2507324
					c2.6883545-0.8640442,7.2386475-2.3265228,8.4949951-2.7303162c4.8984375-1.5744019,10.0341797-0.1486511,13.4465332,3.2453918
					l-6.9150391,2.2225342c-1.5025635-0.516983-3.1680908-0.5939789-4.7967529-0.0705261
					c-0.2387695,0.0767517-5.081543,1.6708984-5.081543,1.6708984l2.973999,9.2530365c0,0,4.6368408-1.453949,5.255249-1.65271
					c1.4304199-0.4597626,2.6176758-1.3130341,3.512085-2.3884583l7.1987305-2.3136749
					c-0.904541,4.5904236-4.2058105,8.5656891-8.9763184,10.0989227c-1.3011475,0.4181976-5.9306641,1.9061737-8.6470947,2.7792206
					c-0.8815918,0.2833405-0.4821777,0.1549835-0.7801514,0.2507324c-0.107666,0.0346069-0.1835938,0.0590057-0.1835938,0.0590057
					L1515.5456543,239.5000458z"/>
			</g>
		</g>
		<g>
			<path class="st4" d="M1315.6970215,243.2423553c0,0-21.9627686-40.8551483,32.9356689-59.5780487"/>
			<g>
				<path class="st2" d="M1306.9082031,248.4536285c-0.2102051-0.5988464,0.017334-1.278717,0.5932617-1.5871277
					l16.3127441-8.7341766c0.5760498-0.3084259,1.2685547-0.1211395,1.6503906,0.385788l0.0345459-0.0184479
					c0,0,0.0377197,0.0706024,0.0909424,0.1699982c0.1478271,0.2761536-0.0501709-0.0936737,0.3868408,0.7223969
					c1.3328857,2.4893951,3.5888672,6.7029724,4.211792,7.8663483c2.4287109,4.5360565,1.9486084,9.8443756-0.7773438,13.8108063
					l-3.4284668-6.4033813c0.2387695-1.5709229,0.0152588-3.2232208-0.7922363-4.7313843
					c-0.1184082-0.2210999-2.5563965-4.6987-2.5563965-4.6987l-8.5683594,4.5876617c0,0,2.2631836,4.3002167,2.5697021,4.872879
					c0.7092285,1.3246155,1.7619629,2.3392639,2.9805908,3.0260315l3.5690918,6.6659851
					c-4.6782227-0.0653381-9.1818848-2.5988159-11.5471191-7.0162964c-0.6450195-1.2048645-2.9404297-5.4918671-4.2872314-8.0072479
					c-0.4370117-0.8163452-0.2390137-0.4465179-0.3867188-0.7223969c-0.0534668-0.0996704-0.0910645-0.1699829-0.0910645-0.1699829
					L1306.9082031,248.4536285z"/>
			</g>
		</g>
		<g>
			<g>
				<ellipse class="st5" cx="1464.5943604" cy="188.810318" rx="7.7738867" ry="9.5948353"/>
			</g>
		</g>
		<g>
			<g>
				<ellipse class="st5" cx="1462.7558594" cy="218.225769" rx="7.7738867" ry="9.5948353"/>
			</g>
		</g>
		<g>
			<g>
				<ellipse class="st5" cx="1339.057251" cy="188.810318" rx="7.7738867" ry="9.5948353"/>
			</g>
		</g>
		<path class="st6" d="M1456.8769531,228.1189728c0-24.7052765-24.6368408-44.7328644-55.027832-44.7328644
			c-30.3911133,0-55.0279541,20.0275879-55.0279541,44.7328644s24.6368408,44.7328339,55.0279541,44.7328339
			c0.0229492,0,0.0457764-0.0006714,0.0687256-0.0007019c0.0229492,0.0000305,0.0457764,0.0007019,0.0687256,0.0007019
			c0,0-0.0037842-0.0012512-0.0040283-0.0013428C1432.3120117,272.7917786,1456.8769531,252.7880096,1456.8769531,228.1189728z"/>
		<g>
			<path class="st5" d="M1401.848999,257.1278992c30.8840332,0,56.3187256-7.3460541,59.763916-20.650116
				c0.1726074-0.4505463,0.2983398-0.9141541,0.3278809-1.3972931l5.4649658-86.9454346
				c0.197998-3.2748413-4.7550049-8.4608002-9.0810547-8.6103821l-48.4742432,2.5349731
				c-4.3260498-0.1495819-11.4047852-0.1500549-15.730835-0.0010834l-48.7462158-2.5328064
				c-4.3260498,0.1490479-9.2781982,5.3344574-9.0810547,8.6092987l5.4658203,86.9454346
				c0.0286865,0.4833679,0.1552734,0.9471436,0.3277588,1.3978424"/>
		</g>
		<g>
			<path class="st2" d="M1401.848877,141.9467468c-2.8059082,0.000946-5.6011963,0.0380554-7.7299805,0.1113739
				l-48.7453613-2.5328827c-4.3260498,0.1490021-9.2788086,5.334549-9.0811768,8.609436l5.4648438,86.9454651
				c0.0291748,0.4832611,0.1561279,0.9470215,0.3283691,1.3975525
				c3.4455566,13.3038635,28.8806152,20.6496277,59.7635498,20.6496277"/>
		</g>
		<g>
			<path class="st6" d="M1461.5471191,118.1488495c-3.6014404-24.8404541-28.9459229-44.0927124-59.6981201-44.0927124
				c-30.7520752,0-56.0966797,19.2522583-59.697998,44.0927124l-0.4554443,22.3807983
				c0,0,22.9992676,10.3432465,60.1534424,10.3432465c37.1542969,0,60.1535645-10.3432465,60.1535645-10.3432465
				L1461.5471191,118.1488495z"/>
		</g>
		<g>
			<g>
				<path class="st3" d="M1365.4659424,124.1972198c0.1817627,0.3151855,0.4379883,0.561058,0.7335205,0.7277908l15.00354,8.6623001
					l0.0003662-0.000473c0.2927246,0.172348,0.6333008,0.2711639,0.9971924,0.2711639s0.704834-0.0988159,0.9970703-0.2711639
					l15.0040283-8.6623001c0.2954102-0.1667252,0.5506592-0.4121323,0.7329102-0.7273178
					c0.1821289-0.3151932,0.2669678-0.6594162,0.2636719-0.9989624v-17.3245926l-0.0004883-0.000473
					c0.0028076-0.3390732-0.0819092-0.6837616-0.2636719-0.9989548c-0.1821289-0.3151855-0.4383545-0.5605927-0.7333984-0.7277908
					l-15.0040283-8.6623001v-0.0004654c-0.2922363-0.172348-0.6326904-0.2711639-0.996582-0.2711639
					c-0.3634033,0-0.7039795,0.0988159-0.9962158,0.2711639v0.0004654l-15.00354,8.6623001
					c-0.2955322,0.1671982-0.5516357,0.4126053-0.7338867,0.7277908c-0.1816406,0.3151932-0.2664795,0.6598816-0.2636719,0.9989548
					l-0.0004883,0.000473v17.3245926c-0.0031738,0.3395462,0.081543,0.6837692,0.2633057,0.9989624"/>
			</g>
		</g>
		<circle cx="1382.2003174" cy="114.5352554" r="7.8991222"/>
		<circle class="st3" cx="1384.4804688" cy="112.5474625" r="2.2802224"/>
		<g>
			<g>
				<path class="st3" d="M1405.2994385,124.1972198c0.1816406,0.3151855,0.4378662,0.561058,0.7333984,0.7277908l15.00354,8.6623001
					l0.0004883-0.000473c0.2927246,0.172348,0.6331787,0.2711639,0.9970703,0.2711639s0.704834-0.0988159,0.9970703-0.2711639
					l15.0040283-8.6623001c0.2955322-0.1667252,0.5507812-0.4121323,0.7329102-0.7273178
					c0.182251-0.3151932,0.2669678-0.6594162,0.2636719-0.9989624v-17.3245926l-0.0004883-0.000473
					c0.0028076-0.3390732-0.0819092-0.6837616-0.2636719-0.9989548c-0.1821289-0.3151855-0.4383545-0.5605927-0.7333984-0.7277908
					l-15.0040283-8.6623001v-0.0004654c-0.2922363-0.172348-0.6326904-0.2711639-0.996582-0.2711639
					c-0.3634033,0-0.7038574,0.0988159-0.9960938,0.2711639v0.0004654l-15.00354,8.6623001
					c-0.2955322,0.1671982-0.5517578,0.4126053-0.7338867,0.7277908c-0.1817627,0.3151932-0.2664795,0.6598816-0.2636719,0.9989548
					l-0.0004883,0.000473v17.3245926c-0.0032959,0.3395462,0.0814209,0.6837692,0.2631836,0.9989624"/>
			</g>
		</g>
		<circle cx="1422.0336914" cy="114.5352554" r="7.8991222"/>
		<circle class="st3" cx="1423.0882568" cy="112.5474625" r="2.2802224"/>
		<g>
			<g>
				<path class="st2" d="M1391.7996826,123.6621552C1391.7996826,123.6621552,1391.7996826,123.90728,1391.7996826,123.6621552
					L1391.7996826,123.6621552z M1378.9281006,123.6621552L1378.9281006,123.6621552L1378.9281006,123.6621552z
					 M1391.3400879,122.4365921L1391.3400879,122.4365921L1391.3400879,122.4365921z"/>
			</g>
			<g>
				<path class="st2" d="M1420.9908447,134.6922913L1420.9908447,134.6922913L1420.9908447,134.6922913z M1427.1968994,123.6621552
					C1427.1968994,123.6621552,1427.1968994,123.90728,1427.1968994,123.6621552L1427.1968994,123.6621552z
					 M1414.3251953,123.6621552L1414.3251953,123.6621552L1414.3251953,123.6621552z M1426.5073242,122.4365921
					L1426.5073242,122.4365921L1426.5073242,122.4365921z M1420.9908447,119.7403412L1420.9908447,119.7403412
					L1420.9908447,119.7403412z"/>
			</g>
			<g>
				<path class="st7" d="M1330.199585,137.1434174c0,35.296402,32.4090576,63.9747467,72.1733398,63.9747467
					s72.1733398-28.6783142,72.1733398-63.9747314c0,0-10.5732422,50.0032501-72.1733398,51.4739227
					c0,0-51.2568359,2.6962585-70.7943115-46.3265381L1330.199585,137.1434174z"/>
			</g>
			<g>
				<path class="st3" d="M1402.1430664,190.0880432c-40.9135742,0-74.4719238-29.1685638-74.4719238-64.9551926
					s33.3284912-64.9552002,74.4719238-64.9552002s74.2419434,29.16856,74.2419434,64.9552002
					C1476.6148682,160.9194794,1443.286499,190.0880432,1402.1430664,190.0880432z M1402.1430664,62.6287918
					c-39.7642822,0-72.1733398,27.9429855-72.1733398,62.5040588s32.4090576,62.5040512,72.1733398,62.5040512
					s71.9434814-27.9429932,71.9434814-62.5040512S1441.9073486,62.6287918,1402.1430664,62.6287918z"/>
			</g>
			<g>
				<rect x="1437.0030518" y="39.955864" class="st3" width="2.2985139" height="29.4136715"/>
			</g>
		</g>
		<path d="M1421.5812988,147.3400879c2.2796631,0,3.9838867,2.0716553,3.5738525,4.3141785
			c-2.0300293,11.1029358-11.7537842,19.5184631-23.4431152,19.5184631s-21.4130859-8.4155273-23.4431152-19.5184631
			c-0.4100342-2.2425232,1.2941895-4.3141785,3.5738525-4.3141785H1421.5812988z"/>
		<g>
			<path class="st6" d="M1391.913208,233.8167572c0.0942383,0.1883545,0.2825928,0.2825317,0.4709473,0.4708862l8.8527832,5.0856323
				l0,0c0.376709,0.1883545,0.8475342,0.1883545,1.2242432,0l8.8527832-5.0856323
				c0.1883545-0.0941772,0.2825928-0.2825317,0.4709473-0.4708862c0.0941162-0.1883545,0.1883545-0.3767242,0.1883545-0.5650787
				v-10.2654419l0,0c0-0.1883545-0.0942383-0.376709-0.1883545-0.5650635
				c-0.0942383-0.1883545-0.2825928-0.282547-0.4709473-0.4709015l-8.8527832-5.0856323l0,0
				c-0.376709-0.1883545-0.8475342-0.1883545-1.2242432,0l0,0l-8.8527832,5.0856323
				c-0.1883545,0.0941772-0.376709,0.282547-0.4709473,0.4709015c-0.0941162,0.1883545-0.1883545,0.376709-0.1883545,0.5650635l0,0
				v10.2654419C1391.7248535,233.440033,1391.8190918,233.6283875,1391.913208,233.8167572"/>
		</g>
	</g>
</g>
</svg>
